File Name

How To Make Love To A Woman 2010 BRRip H264.mp4

File Size
Format : MPEG-4
Format profile : Base Media
Codec ID : isom
File size : 1.65 GiB
Duration : 1h 31mn
Overall bit rate : 2 570 Kbps

Video
ID : 1
Format : AVC
Format/Info : Advanced Video Codec
Format profile : High@L4.1
Format settings, CABAC : Yes
Format settings, ReFrames : 3 frames
Codec ID : avc1
Codec ID/Info : Advanced Video Coding
Duration : 1h 31mn
Bit rate mode : Variable
Bit rate : 1 999 Kbps
Maximum bit rate : 7 321 Kbps
Width : 1 280 pixels
Height : 720 pixels
Display aspect ratio : 16:9
Frame rate mode : Constant
Frame rate : 23.976 fps
Resolution : 24 bits
Colorimetry : 4:2:0
Scan type : Progressive
Bits/(Pixel*Frame) : 0.090
Stream size : 1.28 GiB (77%)

Audio #1
ID : 2
Format : AAC
Format/Info : Advanced Audio Codec
Format version : Version 4
Format profile : LC
Format settings, SBR : No
Codec ID : 40
Duration : 1h 31mn
Bit rate mode : Variable
Bit rate : 128 Kbps
Maximum bit rate : 135 Kbps
Channel(s) : 2 channels
Channel positions : L R
Sampling rate : 48.0 KHz
Resolution : 16 bits
Stream size : 84.1 MiB (5%)

Audio #2
ID : 3
Format : AAC
Format/Info : Advanced Audio Codec
Format version : Version 4
Format profile : LC
Format settings, SBR : No
Codec ID : 40
Duration : 1h 31mn
Bit rate mode : Variable
Bit rate : 448 Kbps
Maximum bit rate : 466 Kbps
Channel(s) : 6 channels
Channel positions : Front: L C R, Rear: L R, LFE
Sampling rate : 48.0 KHz
Resolution : 16 bits
Stream size : 294 MiB (17%)

English SRT : ----

Language : English

 
http://www.imdb.com/title/tt1241017/

Release Date: 2010 (USA) 

Genre: Comedy 

Plot: A comedy of miscommunication between the sheets. 

Cast: 
Josh Meyers ... Andy Conners
Krysten Ritter ... Lauren Baker
Eugene Byrd ... Layne Wilson
Ian Somerhalder ... Daniel Meltzer
Lindsay Richards ... Nomi Darden
Catherine Reitman ... Vani
Nora Kirkpatrick ... Carla
Ken Jeong ... Curtis Lee
James Kyson-Lee ... Aaron (as James Kyson Lee)
Ike Barinholtz ... David
Heather Marie Marsden ... Nancy
Kirk Fox ... Gil
Telisha Shaw ... Rose
Shelly Cole ... Rose
James Hong ... Sifu